<svg width="72" height="72" viewBox="0 0 72 72" fill="none" xmlns="http://www.w3.org/2000/svg">
<path d="M71.99 0H0V71.99H71.99V0Z" fill="#1F54A6"/>
<path d="M27.37 22.31C27.37 29.15 21.85 34.67 15.01 34.67C8.17001 34.67 2.64001 29.16 2.64001 22.31C2.64001 15.46 8.16001 9.95001 15 9.95001C21.84 9.95001 27.36 15.51 27.36 22.31H27.37ZM22.22 22.31C22.22 18.31 19.01 15.1 15.01 15.1C11.01 15.1 7.80001 18.31 7.80001 22.31C7.80001 26.31 11.01 29.52 15.01 29.52C19.01 29.52 22.22 26.31 22.22 22.31Z" fill="white"/>
<path d="M49.49 10.44V34.22H44.34L35.15 19.38V34.22H30V10.44H35.15L44.34 25.24V10.44H49.49Z" fill="white"/>
<path d="M57.28 15.56V19.76H66.59V24.91H57.28V29.07H68.37V34.22H52.13V10.44H68.37V15.55H57.28V15.56Z" fill="white"/>
<path d="M23.94 37.92V43.03H16.93V61.7H11.78V43.03H4.77002V37.92H23.93H23.94Z" fill="white"/>
<path d="M43.44 61.7H38.29L36.89 57.5H28.19L26.79 61.7H21.64L29.64 37.92H35.49L43.44 61.7ZM35.16 52.39L32.56 44.52L29.92 52.39H35.15H35.16Z" fill="white"/>
<path d="M67.5 48.1V49.79C67.5 56.59 62.02 62.15 55.14 62.15C48.26 62.15 42.78 56.63 42.78 49.79C42.78 42.95 48.3 37.43 55.14 37.43C60.13 37.43 64.41 40.36 66.35 44.6L61.49 46.29C60.25 44.06 57.86 42.58 55.14 42.58C51.14 42.58 47.93 45.79 47.93 49.79C47.93 53.79 51.14 57 55.14 57C57.86 57 60.25 55.52 61.49 53.25H54.11V48.1H67.5Z" fill="white"/>
</svg>
