<?xml version="1.0" encoding="UTF-8"?>
<svg xmlns="http://www.w3.org/2000/svg" viewBox="0 0 292.55 72.08">
  <defs>
    <style>
      .cls-1 {
        fill: #fff;
      }

      .cls-1, .cls-2 {
        stroke-width: 0px;
      }

      .cls-2 {
        fill: #1f54a6;
      }
    </style>
  </defs>
  <g id="Layer_1" data-name="Layer 1">
    <rect class="cls-2" y=".08" width="71.99" height="71.99"/>
    <g>
      <path class="cls-1" d="m27.37,22.39c0,6.84-5.52,12.36-12.36,12.36S2.64,29.24,2.64,22.39s5.52-12.36,12.36-12.36,12.36,5.56,12.36,12.36Zm-5.15,0c0-4-3.21-7.21-7.21-7.21s-7.21,3.21-7.21,7.21,3.21,7.21,7.21,7.21,7.21-3.21,7.21-7.21Z"/>
      <path class="cls-1" d="m49.49,10.52v23.78h-5.15l-9.19-14.84v14.84h-5.15V10.52h5.15l9.19,14.8v-14.8h5.15Z"/>
      <path class="cls-1" d="m57.28,15.64v4.2h9.31v5.15h-9.31v4.16h11.09v5.15h-16.24V10.52h16.24v5.11h-11.09Z"/>
      <path class="cls-1" d="m23.94,38v5.11h-7.01v18.67h-5.15v-18.67h-7.01v-5.11h19.16Z"/>
      <path class="cls-1" d="m43.44,61.78h-5.15l-1.4-4.2h-8.7l-1.4,4.2h-5.15l8-23.78h5.85l7.95,23.78Zm-8.28-9.31l-2.6-7.87-2.64,7.87h5.23Z"/>
      <path class="cls-1" d="m67.5,48.18v1.69c0,6.8-5.48,12.36-12.36,12.36s-12.36-5.52-12.36-12.36,5.52-12.36,12.36-12.36c4.99,0,9.27,2.93,11.21,7.17l-4.86,1.69c-1.24-2.23-3.63-3.71-6.35-3.71-4,0-7.21,3.21-7.21,7.21s3.21,7.21,7.21,7.21c2.72,0,5.11-1.48,6.35-3.75h-7.38v-5.15h13.39Z"/>
    </g>
    <rect class="cls-1" x="87.41" y=".08" width="2" height="72"/>
  </g>
  <g id="Layer_3" data-name="Layer 3">
    <g>
      <polygon class="cls-1" points="75.11 .88 76.52 .88 76.52 4.83 77.48 4.83 77.48 .88 78.89 .88 78.89 .08 75.11 .08 75.11 .88"/>
      <polygon class="cls-1" points="82.65 .08 81.79 3.32 80.93 .08 79.5 .08 79.5 4.83 80.39 4.83 80.39 1.09 81.33 4.83 82.25 4.83 83.19 1.09 83.19 4.83 84.08 4.83 84.08 .08 82.65 .08"/>
    </g>
  </g>
  <g id="Layer_2" data-name="Layer 2">
    <path class="cls-1" d="m132.57,21.12c-.83-4.85-3.73-7.6-8.03-7.6-5.08,0-7.99,2.55-7.99,7.01.13,2.6,1.35,4.02,3.78,5.29,1.69.93,2.73,1.27,4.86,1.91,2.52.83,4.65,1.62,6.34,2.25s3.52,1.42,5.43,2.25c3.78,1.72,5.9,3.14,8.25,5.29,3.39,3.23,4.69,7.06,4.82,12.79-.04,7.01-2.26,12.4-6.73,16.08-4.47,3.68-10.51,5.54-18.19,5.54s-13.46-1.81-18.02-5.49c-4.56-3.68-6.99-8.97-7.34-15.88l15.54-1.23c.69,5.49,4.43,8.53,9.77,8.53s9.25-2.5,9.29-7.16c-.13-3.23-2.08-5.29-5.6-7.11-2.47-1.32-4.25-1.86-7.34-2.99-1.69-.59-3.13-1.08-4.21-1.52-1.13-.39-2.39-.88-3.73-1.42-1.39-.54-2.47-1.08-3.3-1.57-1.65-.93-3.95-2.35-5.08-3.72-1.13-1.32-2.52-3.14-3.08-5.15-.56-2.01-1-4.46-1-7.45,0-8.67,4.56-14.95,11.5-17.74,3.47-1.37,7.47-2.06,12.02-2.06,6.73,0,12.2,1.67,16.5,5.05,4.3,3.38,6.64,8.33,7.08,14.8l-15.54,1.27Z"/>
    <g>
      <path class="cls-1" d="m198.88,17.38c.2,1.58.13,3.47-.2,5.7l-1.64,10.34h-4.59l1.64-10.34c.72-4.39-.33-6.72-3.71-6.72-1.78,0-3.27.61-4.46,1.84-1.19,1.23-1.95,2.87-2.26,4.89l-1.64,10.34h-4.61l1.64-10.34c.72-4.39-.35-6.72-3.71-6.72-1.78,0-3.27.61-4.46,1.84-1.19,1.23-1.97,2.87-2.28,4.89l-1.63,10.34h-4.59l3.27-20.69h4.41l-.33,3.27c1.67-2.48,4.17-3.58,7.86-3.58,3.49,0,5.55,1.49,6.17,4.46,1.82-2.88,4.85-4.46,8.87-4.46,3.8,0,5.86,1.82,6.26,4.96Z"/>
      <path class="cls-1" d="m221,16l.7-3.27h4.39l-3.27,20.69h-4.39l.33-3.27c-1.6,2.39-4.37,3.58-8.32,3.56-5.42.13-9.26-4.57-8.19-10.64.5-3.07,1.84-5.6,4.06-7.62,2.22-2.02,4.72-3.03,7.5-3.03,3.62,0,6.26,1.36,7.2,3.58Zm-3.78,11.85c1.47-1.27,2.35-2.87,2.66-4.79.29-1.91-.09-3.51-1.14-4.8-1.07-1.27-2.5-1.91-4.32-1.91-3.51-.09-7.04,2.9-7.57,6.72-.31,1.93.07,3.53,1.14,4.79,1.05,1.27,2.48,1.91,4.28,1.91s3.45-.64,4.94-1.93Z"/>
      <path class="cls-1" d="m230.88,12.73h4.41l-.24,2.72c1.08-1.16,2.24-1.97,3.45-2.39,1.19-.42,2.76-.62,4.68-.62l-.61,3.91c-2.41,0-4.37.61-5.93,1.84s-2.48,2.87-2.79,4.89l-1.63,10.34h-4.61l3.27-20.69Z"/>
      <path class="cls-1" d="m250.03,8.05h4.57l-.75,4.68h5.33l-.55,3.6h-5.33l-1.62,10.29c-.29,1.89.15,2.87,1.64,3.03.88.18,1.95.15,3.21-.11l-.61,3.82c-1.42.22-2.68.33-3.84.33-4.35,0-5.77-2.28-5.03-6.91l1.65-10.45h-2.94l.57-3.6h2.94l.75-4.68Z"/>
    </g>
    <g>
      <path class="cls-1" d="m164.85,64.37c-1.73-1.82-2.57-4.59-2.08-7.73.33-2.11,1.12-3.99,2.39-5.62,1.27-1.64,2.79-2.87,4.61-3.73s3.75-1.29,5.79-1.29c2.99,0,5.58,1.07,7.33,2.88,1.75,1.82,2.61,4.61,2.09,7.75-.35,2.11-1.14,3.97-2.41,5.6-1.27,1.63-2.79,2.88-4.61,3.73-1.82.86-3.73,1.29-5.77,1.29-2.99,0-5.62-1.07-7.35-2.88Zm12.9-2.94c1.47-1.27,2.35-2.88,2.66-4.81.29-1.93-.09-3.53-1.14-4.8-1.07-1.27-2.5-1.91-4.32-1.91s-3.47.64-4.94,1.91c-1.49,1.27-2.37,2.87-2.66,4.8-.31,1.93.07,3.55,1.14,4.81,1.05,1.27,2.5,1.91,4.34,1.91s3.45-.64,4.92-1.91Z"/>
      <path class="cls-1" d="m191.56,38.76h4.61l-4.45,28.22h-4.61l4.45-28.22Z"/>
      <path class="cls-1" d="m204.01,46.29l-1.64,10.34c-.72,4.39.35,6.71,3.8,6.71,1.84,0,3.36-.61,4.56-1.84,1.19-1.21,1.97-2.83,2.28-4.87l1.64-10.34h4.59l-3.27,20.69h-4.41l.33-3.27c-1.73,2.39-4.34,3.58-7.84,3.56-5.88.04-7.31-4.06-6.28-10.64l1.63-10.34h4.61Z"/>
      <path class="cls-1" d="m226.97,41.61h4.57l-.75,4.68h5.33l-.55,3.6h-5.33l-1.62,10.29c-.29,1.89.15,2.87,1.64,3.03.88.18,1.95.15,3.21-.11l-.61,3.82c-1.42.22-2.68.33-3.84.33-4.35,0-5.77-2.28-5.03-6.91l1.65-10.45h-2.94l.57-3.6h2.94l.75-4.68Z"/>
      <path class="cls-1" d="m239.99,46.29h4.61l-3.27,20.69h-4.61l3.27-20.69Zm.94-3.78c-.46-.53-.64-1.19-.51-1.97.13-.75.5-1.4,1.14-1.95.64-.53,1.34-.81,2.11-.81s1.36.28,1.82.81c.46.55.62,1.19.5,1.95-.13.75-.5,1.41-1.12,1.97-.64.55-1.34.83-2.09.83s-1.38-.28-1.84-.83Z"/>
      <path class="cls-1" d="m248.53,64.37c-1.73-1.82-2.57-4.59-2.08-7.73.33-2.11,1.12-3.99,2.39-5.62,1.27-1.64,2.79-2.87,4.61-3.73,1.82-.86,3.75-1.29,5.79-1.29,2.99,0,5.58,1.07,7.33,2.88s2.61,4.61,2.09,7.75c-.35,2.11-1.14,3.97-2.41,5.6-1.27,1.63-2.79,2.88-4.61,3.73-1.82.86-3.73,1.29-5.77,1.29-3,0-5.62-1.07-7.35-2.88Zm12.9-2.94c1.47-1.27,2.35-2.88,2.66-4.81.29-1.93-.09-3.53-1.14-4.8-1.07-1.27-2.5-1.91-4.32-1.91s-3.47.64-4.94,1.91c-1.49,1.27-2.37,2.87-2.66,4.8-.31,1.93.07,3.55,1.14,4.81,1.05,1.27,2.5,1.91,4.33,1.91s3.45-.64,4.92-1.91Z"/>
      <path class="cls-1" d="m286.03,66.98l1.63-10.34c.72-4.41-.37-6.72-3.82-6.72-1.84,0-3.36.61-4.56,1.84-1.19,1.23-1.97,2.85-2.28,4.89l-1.64,10.34h-4.59l3.27-20.69h4.41l-.33,3.27c1.75-2.39,4.37-3.58,7.86-3.58,3.82,0,5.95,1.82,6.41,4.96.24,1.58.18,3.47-.15,5.7l-1.63,10.34h-4.59Z"/>
    </g>
  </g>
</svg>