<?xml version="1.0" encoding="UTF-8"?>
<svg id="Layer_1" data-name="Layer 1" xmlns="http://www.w3.org/2000/svg" viewBox="0 0 196.22 203.66">
  <defs>
    <style>
      .cls-1 {
        fill: #fe000c;
      }

      .cls-1, .cls-2, .cls-3, .cls-4 {
        stroke-width: 0px;
      }

      .cls-2 {
        fill: #fff;
      }

      .cls-3 {
        fill: #f60;
      }

      .cls-4 {
        fill: #006546;
      }
    </style>
  </defs>
  <rect class="cls-4" width="196.22" height="203.66"/>
  <path class="cls-2" d="m122.51,183.62v7.64h-47.07v-7.65h-35.62c-3.49,0-6.31-3.64-6.31-8.12L18.62,24.77c0-4.49,3.47-8.12,7.75-8.12h143.91c4.28,0,7.76,3.64,7.76,8.12l-14.73,150.72c0,4.48-2.83,8.12-6.31,8.12h-34.49Z"/>
  <path class="cls-3" d="m44.8,38.71h96.36c-9.49,3.56-38.37,23.11-45.59,36.25h-50.67l-.11-36.25Z"/>
  <path class="cls-1" d="m121.6,142.59c-1.37,13.13-1.42,29.12-1.42,45.9h-41.77c0-16.79.69-32.78,2.06-45.9h41.13Z"/>
  <polygon class="cls-4" points="41.73 112.49 57 112.49 57 118.53 50.32 118.53 50.32 123.62 57 123.62 57 128.71 50.32 128.71 50.32 133.8 57 133.8 57 139.63 41.73 139.63 41.73 112.49"/>
  <polygon class="cls-4" points="77.24 112.49 92.51 112.49 92.51 118.53 85.83 118.53 85.83 123.62 92.51 123.62 92.51 128.71 85.83 128.71 85.83 133.8 92.51 133.8 92.51 139.63 77.24 139.63 77.24 112.49"/>
  <polygon class="cls-4" points="116.36 112.49 131.62 112.49 131.62 118.53 124.94 118.53 124.94 123.62 131.62 123.62 131.62 128.71 124.94 128.71 124.94 133.8 131.62 133.8 131.62 139.63 116.36 139.63 116.36 112.49"/>
  <polygon class="cls-4" points="68.44 133.8 75.12 133.8 75.12 139.63 59.86 139.63 59.86 112.49 68.44 112.49 68.44 133.8"/>
  <polygon class="cls-4" points="94.07 112.49 98.32 139.63 109.36 139.63 114.53 112.49 108.14 112.49 104.8 130.83 101.56 112.49 94.07 112.49"/>
  <rect class="cls-4" x="135.23" y="112.49" width="8.27" height="27.14"/>
  <path class="cls-4" d="m143.5,120.55c.43-2.97,4.67-2.18,4.67-.48v19.56h8.27v-23c0-4.88-6.89-6.84-12.88-2.54"/>
  <path class="cls-1" d="m125.48,108.67c.84-10.39,15.05-27.35,28.83-31.8v-40.07c-37.9,16.96-62.55,42.61-67.88,71.77l39.04.1Z"/>
  <path class="cls-4" d="m136.47,154.13c-1.07,1.07-2.36,1.61-3.88,1.61s-2.81-.54-3.87-1.61c-1.06-1.07-1.59-2.36-1.59-3.88s.54-2.79,1.61-3.86c1.06-1.06,2.35-1.59,3.86-1.59s2.81.53,3.88,1.59c1.07,1.06,1.61,2.35,1.61,3.86s-.54,2.81-1.61,3.88m-7.22-7.21c-.92.92-1.37,2.03-1.37,3.33s.45,2.43,1.37,3.35c.91.92,2.03,1.39,3.34,1.39s2.42-.46,3.35-1.39c.92-.92,1.37-2.04,1.37-3.35s-.46-2.41-1.37-3.33c-.93-.92-2.04-1.38-3.35-1.38s-2.41.46-3.34,1.38m3.24.3c.75,0,1.3.07,1.64.22.62.26.94.77.94,1.53,0,.54-.2.93-.58,1.19-.21.13-.5.23-.87.29.46.08.8.27,1.02.59.22.32.33.63.33.93v.44c0,.14,0,.29.01.45,0,.16.03.26.05.31l.04.08h-.99s0-.04-.01-.06c0-.02,0-.05-.02-.07l-.02-.19v-.48c0-.69-.19-1.15-.57-1.38-.23-.13-.62-.19-1.19-.19h-.84v2.37h-1.05v-6.02h2.11Zm1.16.97c-.27-.15-.7-.22-1.3-.22h-.91v2.15h.97c.46,0,.79-.04,1.02-.13.42-.16.63-.47.63-.93,0-.43-.13-.72-.4-.87"/>
</svg>