<?xml version="1.0" encoding="UTF-8"?>
<svg id="Layer_1" data-name="Layer 1" xmlns="http://www.w3.org/2000/svg" viewBox="0 0 171.99 138.45">
  <defs>
    <style>
      .cls-1 {
        fill: #25347a;
      }

      .cls-1, .cls-2 {
        stroke-width: 0px;
      }

      .cls-2 {
        fill: #ef3842;
      }
    </style>
  </defs>
  <path class="cls-2" d="m57.86,3.08c.24-.24.48-.34.67-.34.35,0,.6.32.59.7-.01.23-.11.48-.34.7-8.84,10.98-15.26,23.82-15.26,41.63s6.42,30.39,15.26,41.37c.23.22.32.47.34.7.01.38-.24.7-.59.7-.2,0-.44-.1-.67-.34L20.22,51.8c-1.88-1.61-3.08-3.49-3.08-6.16s1.19-4.56,3.08-6.15L57.86,3.08"/>
  <path class="cls-1" d="m86.8,0c-14.73,0-20.5,20.88-20.5,45.78s5.77,45.51,20.5,45.51c8.84,0,16.38-5.18,16.4-9.44,0-.93-.35-1.82-1.14-2.6-4.19-4.05-5.82-8.1-5.84-11.67-.03-6.82,5.88-11.9,11.34-11.9,7.5,0,11.92,5.89,11.92,13.52,0,7.23-3.09,13.26-6.44,18.07-.13.2-.18.42-.18.61,0,.38.22.69.56.69.2,0,.43-.11.7-.37l37.65-36.4c1.88-1.61,3.08-3.49,3.08-6.16s-1.21-4.56-3.08-6.15L114.12,3.08c-.26-.26-.5-.37-.7-.37-.34,0-.56.31-.56.69,0,.19.05.41.18.61,3.35,4.81,6.44,10.85,6.44,18.07,0,7.62-4.42,13.53-11.92,13.53-5.45,0-11.37-5.08-11.34-11.9.01-3.57,1.65-7.62,5.84-11.67.79-.79,1.14-1.67,1.14-2.61-.03-4.26-7.56-9.44-16.4-9.44"/>
  <path class="cls-1" d="m25.78,131.87c0-1.95.85-3.53,2.3-4.59,1.44-1.07,3.45-1.63,5.8-1.63,1.46,0,2.97.27,4.01.71v-2.19c-.03-2.2-.86-3.45-3.33-3.48-.47,0-1.49.12-2.35.41.08.32.13.64.13.95,0,.74-.24,1.41-.68,1.91-.44.5-1.1.81-1.89.81-1.44,0-2.51-1.17-2.51-2.61.03-2.68,3.27-4.48,7.61-4.48,3.44,0,5.61.82,6.76,2.3,1.05,1.34,1.1,3.28,1.11,6.02v7.16c.02,1.39.8,1.76,2.53,2.03l.18.03v.2c-.11,1.88-1.49,2.67-2.98,2.79-.13,0-.26.02-.39.02-1.46,0-2.88-.71-3.55-2.18-.93.77-3.01,2.23-5.7,2.23-4,0-7.04-2.7-7.05-6.4m122.85,5.47c-.35-.5-.54-1.13-.72-1.86-.19.23-.43.47-.78.81-1.31,1.23-3.02,1.96-4.94,1.96-2.1,0-3.89-.81-5.03-2.15-1.76-2.09-1.74-4.74-1.75-8.51v-3.62c-.03-1.47-.49-1.97-1.86-2.01-.17,0-.37.02-.57.04l-.17.02-.07-.15c-.1-.27-.15-.53-.15-.78.05-1.75,2.26-2.69,3.57-2.96.45-.07.88-.14,1.3-.15,1.06,0,1.84.34,2.34.95.49.62.69,1.46.69,2.44l-.04,6.19c0,2.29.16,4,.67,5.1.51,1.09,1.28,1.6,2.7,1.62,1.55,0,2.49-.67,3.09-1.67.6-1,.82-2.35.82-3.63v-5.01c-.03-1.47-.49-1.97-1.85-2.01-.18,0-.38.02-.58.04l-.16.02-.07-.15c-.11-.27-.15-.53-.15-.78.04-1.75,2.25-2.69,3.57-2.96.46-.07.89-.14,1.31-.14,1.05,0,1.85.34,2.33.95.51.62.7,1.46.7,2.44,0,.71-.06,1.97-.06,7.25,0,2.23-.04,3.41-.04,3.77.03,1.52.55,2.2,1.94,2.23.15,0,.32,0,.49-.03h.16s.05.14.05.14c.11.26.16.52.16.76-.06,1.71-2.29,2.4-3.58,2.65-.43.07-.85.13-1.21.13h-.03c-1,0-1.67-.35-2.09-.94m-70.35-9.04c0-3.08,1.01-5.74,2.78-7.62,1.77-1.89,4.3-3,7.29-3,2.74,0,4.76,1.01,6.09,2.46,1.32,1.45,1.96,3.32,1.96,5.05,0,1.02-.22,1.98-.66,2.78l-.06.11h-12.2c.2,3.55,2.46,6.03,6.39,6.04,2.42,0,4.29-1.33,4.91-2.12l.13-.17.17.13c.36.25.73.71.72,1.6-.01,2.05-2.41,4.67-7.73,4.67-5.39-.01-9.78-4.31-9.79-9.94m43.22,9.9c-2.74,0-5.24-1.04-7.06-2.84-1.82-1.81-2.95-4.38-2.95-7.46.01-6.08,4.79-10.21,10.19-10.23,2.9,0,5.41,1.03,7.21,2.84,1.79,1.8,2.83,4.36,2.83,7.39s-1.09,5.62-2.92,7.43c-1.83,1.82-4.39,2.87-7.29,2.87h0Zm37.38-.61c-.85-.24-1.39-.7-1.39-1.4,0-.28.08-.57.23-.89l.05-.09.11-.03c.32-.06.87-.23,1.34-.6.5-.42.7-.99.71-2.62v-8.19c-.05-1.38-.36-1.86-1.5-1.89-.27,0-.57.03-.92.1l-.18.04-.06-.17c-.12-.31-.18-.6-.18-.88.04-1.64,1.83-2.48,3.04-2.86.49-.15.92-.22,1.36-.22,1.63,0,2.53,1.17,2.9,2.68,1.08-1.75,2.78-2.92,4.47-2.92,1.58,0,3.18,1.03,3.18,3,0,1.39-.99,2.85-2.63,2.86-1.22,0-2.29-.8-2.53-1.99-.94.31-2.24,1.47-2.25,5.51v4.94c0,1.62.23,2.2.68,2.61.47.36,1.44.54,1.78.6l.1.03.05.09c.16.35.24.67.24.96.01.66-.48,1.11-1.28,1.34-.8.23-1.98.33-3.57.33s-2.88-.09-3.74-.34m-59.07,0c-.85-.23-1.39-.7-1.39-1.4,0-.27.08-.57.22-.88l.05-.1.11-.02c.34-.06.86-.22,1.34-.59.5-.42.69-.99.7-2.62v-10.77l-2.89-.1-.06-.13c-.15-.36-.21-.69-.21-1.01,0-1.05.8-1.75,1.82-1.75h1.27v-1.19c0-2.88.53-4.52,1.27-5.62,1.13-1.75,3.08-2.96,6.07-2.95,3.75,0,6.88,1.74,6.9,4.55,0,1.21-.84,2.72-2.61,2.72-1.32,0-2.54-1.1-2.55-2.5,0-.51.18-1.03.43-1.42-.38-.34-1.14-.55-1.87-.55-1.15,0-1.8.41-2.21,1.08-.39.67-.53,1.65-.52,2.76v3.1h4.96l.05.14c.15.36.23.71.23,1.04,0,1.07-.78,1.89-1.74,1.97-.37.04-.77.04-1.11.04-.83,0-1.64-.06-2.25-.07v10.68c0,1.61.27,2.19.75,2.61.43.35,1.67.54,2.03.6l.11.02.05.1c.14.29.2.56.2.82,0,.74-.6,1.21-1.51,1.45-.92.26-2.23.36-3.89.36s-2.89-.09-3.75-.35m-34.66,0c-.85-.24-1.39-.7-1.38-1.4,0-.28.08-.57.22-.89l.05-.1.11-.02c.33-.06.86-.22,1.35-.59.49-.42.7-.99.7-2.62v-8.19c-.05-1.38-.36-1.86-1.5-1.89-.27,0-.57.03-.92.1l-.18.04-.06-.17c-.12-.32-.18-.61-.18-.89.03-1.63,1.82-2.47,3.04-2.84.47-.15.92-.22,1.34-.22,1.64,0,2.54,1.16,2.91,2.65,1.08-1.74,2.8-2.89,4.48-2.89,1.56,0,3.18,1.03,3.18,3,0,1.39-.99,2.86-2.65,2.86-1.22,0-2.28-.8-2.51-1.99-.94.31-2.26,1.48-2.28,5.51v4.94c0,1.62.24,2.2.72,2.61.46.36,1.42.54,1.79.6l.1.02.05.1c.15.35.24.66.24.96.01.66-.49,1.12-1.3,1.34-.8.24-1.98.33-3.58.33s-2.87-.09-3.73-.34m-16.38,0c-.84-.24-1.38-.7-1.38-1.4,0-.28.07-.57.23-.89l.05-.1.11-.02c.33-.06.86-.22,1.34-.59.5-.42.7-.99.7-2.62v-8.19c-.03-1.38-.35-1.86-1.5-1.89-.26,0-.57.03-.91.1l-.18.04-.07-.17c-.12-.32-.17-.61-.17-.89.02-1.63,1.82-2.47,3.02-2.84.48-.15.92-.22,1.34-.22,1.65,0,2.54,1.16,2.92,2.65,1.08-1.74,2.8-2.89,4.48-2.89,1.56,0,3.16,1.03,3.17,3,0,1.39-.99,2.86-2.65,2.86-1.21,0-2.28-.8-2.5-1.99-.94.31-2.28,1.48-2.29,5.51v4.94c0,1.62.24,2.2.72,2.61.46.36,1.44.54,1.78.6l.11.02.05.1c.15.35.25.66.25.96,0,.66-.5,1.12-1.29,1.34-.81.24-1.99.33-3.6.33s-2.87-.09-3.72-.34m68.3-10.25c.01,5.38,2.35,7.7,4.65,7.7,2.62,0,4.52-2.32,4.53-6.85,0-2.36-.53-4.26-1.38-5.54-.86-1.28-2.02-1.97-3.38-1.97-2.71,0-4.41,2.47-4.43,6.66m-82.33,1.13c-2.16.02-3.62,1.03-3.63,3.04,0,1.9,1.29,3.17,3.31,3.19,1.31,0,2.63-.73,3.47-1.76v-2.78c0-.38-.24-.79-.78-1.12-.54-.33-1.34-.56-2.38-.56m55.97-3.26c.39,0,.5-.1.57-.22.08-.13.1-.4.1-.72-.04-1.87-1.5-3.6-3.74-3.6-2.82,0-3.96,2.26-4.13,4.54h7.2ZM3.91,134.68C1.53,132.24,0,128.68,0,124.24,0,120,1.49,116.42,3.83,113.9c2.34-2.52,5.52-3.98,8.88-3.98,6.02.01,10.27,4.22,10.3,7.86,0,1.95-1.23,3.46-2.91,3.46-.82,0-1.59-.28-2.17-.81-.57-.54-.91-1.31-.91-2.26,0-1.14.57-1.83,1.02-2.33-.78-1.37-2.36-2.5-4.81-2.51-2.09,0-3.85,1.09-5.11,2.99-1.27,1.91-2.02,4.65-2.02,7.88s.79,5.96,2.08,7.86c1.3,1.9,3.1,2.98,5.19,2.98,2.45,0,4.03-1.12,4.81-2.51-.44-.48-1.01-1.18-1.01-2.31,0-.95.34-1.74.91-2.27.57-.53,1.34-.81,2.17-.81,1.67,0,2.89,1.49,2.91,3.44-.03,3.66-4.28,7.86-10.3,7.87-3.35,0-6.56-1.32-8.95-3.77"/>
</svg>