<?xml version="1.0" encoding="UTF-8"?>
<svg id="Index" xmlns="http://www.w3.org/2000/svg" viewBox="0 0 566.54 566.56">
  <defs>
    <style>
      .cls-1 {
        fill: #00a1dd;
        fill-rule: evenodd;
        stroke-width: 0px;
      }
    </style>
  </defs>
  <path class="cls-1" d="m454.65,196.64h-45.09l-63.16,173.33h45.09l63.16-173.33h0Zm-171.42,369.92c-2.78,0-5.59-.05-8.39-.14l57.9-159.11h79.64c14.01,0,29.37-10.74,34.14-23.88l62.8-172.51c10.3-28.26-5.86-51.34-35.96-51.34h-110.52l-92.73,254.83h-.03l-52.59,144.44C92.79,529.22,0,417.06,0,283.28S87.5,43.82,206.81,10.45l-54.26,149.12h-.03l-90.18,247.74h60.04l76.7-210.51h45.12l-76.7,210.51,60,.03,71.47-196.42c10.28-28.26-5.89-51.34-35.92-51.34h-50.46L270.52.32c4.23-.21,8.47-.32,12.71-.32,156.49,0,283.31,126.83,283.31,283.28s-126.82,283.28-283.31,283.28Z"/>
</svg>