<?xml version="1.0" encoding="UTF-8"?>
<svg id="Layer_1" data-name="Layer 1" xmlns="http://www.w3.org/2000/svg" viewBox="0 0 365 96.19">
  <defs>
    <style>
      .cls-1 {
        fill: #567194;
        fill-rule: evenodd;
        stroke-width: 0px;
      }
    </style>
  </defs>
  <polygon class="cls-1" points="9.67 37.85 9.67 73.66 0 73.66 0 2.03 9.67 2.03 9.67 30.85 49.02 30.85 49.02 2.03 58.68 2.03 58.68 73.66 49.02 73.66 49.02 37.85 9.67 37.85"/>
  <path class="cls-1" d="m266.73,63.47V8.81h21.18V2.03h-52.25v6.78h21.41v51.78c-13.75-3.39-28.03-5.69-42.52-6.96L191.92.19l-3.94-.19-22.19,53.3c-14.2,1.01-28.24,2.92-41.78,5.83,0,0-.51.13-1.38.36v-16.84L147.94,2.03h-9.56l-20.44,33.61L96.36,2.03h-10.74l27.34,41.3v18.84c-19.39,5.62-58.73,18.3-71.58,32.07,32.72-16.02,82.63-26.11,82.63-26.11,12.37-2.24,24.92-3.79,37.57-4.7l-13.64,32.76h10.04l15.14-38.87-2.65,6.82c10-.39,38.25-.56,38.25-.56l13.19,32.62h10.67l-13.65-32.25c12.93,1.18,25.83,3.09,38.6,5.75l12.43,2.84c20.74,5.17,41.05,12.35,60.54,21.71-12.27-13.35-47.02-25.5-63.74-30.78Zm-91.96-10.42l14.56-37.39,15.12,37.39h-29.68Z"/>
  <polygon class="cls-1" points="343.82 73.66 334.16 73.66 334.16 8.81 312.75 8.81 312.75 2.03 365 2.03 365 8.81 343.82 8.81 343.82 73.66"/>
</svg>