<?xml version="1.0" encoding="UTF-8"?>
<svg id="Layer_1" data-name="Layer 1" xmlns="http://www.w3.org/2000/svg" viewBox="0 0 1600 533.33">
  <defs>
    <style>
      .cls-1 {
        fill: #fff;
      }

      .cls-1, .cls-2 {
        stroke-width: 0px;
      }

      .cls-2 {
        fill: #e1251b;
      }
    </style>
  </defs>
  <rect class="cls-2" width="1600" height="533.33"/>
  <g>
    <path class="cls-1" d="m697.05,179.75c-23.63,0-50.51,10.95-66.93,32.89v-.04s0,.02,0,.02v-29.42s-56.36,0-56.36,0v205.27h56.36v-116.8c0-21.02,16.29-43.37,46.47-43.37,23.33,0,47.46,16.22,47.46,43.37v116.8h56.37v-127.25c0-47.2-33.77-81.46-83.36-81.46"/>
    <polygon class="cls-1" points="1181.02 183.2 1130.06 323.03 1079.1 183.2 1014.72 183.2 1099.18 388.39 1160.94 388.39 1245.4 183.2 1181.02 183.2"/>
    <path class="cls-1" d="m513.77,325.35c-23.73,17.55-37.28,21.75-58.91,21.75-19.47,0-34.71-6.04-45.46-16.65l144.1-59.78c-3.14-22.28-11.59-42.17-24.61-57.3-18.93-22-46.96-33.63-81.07-33.63-61.98,0-108.72,45.73-108.72,106.11s46.84,106.1,114.92,106.1c38.14,0,77.15-18.08,95.38-39.2l-35.64-27.4Zm-108.29-80.31c9.6-12.89,24.89-20.45,43.36-20.45,20.32,0,35.72,11.6,43.69,28.72l-98.47,40.85c-2.69-20.96,2.67-37.36,11.43-49.12Z"/>
    <polygon class="cls-1" points="333.73 336.7 205.62 336.7 205.62 121.81 148.49 121.81 148.49 388.46 333.73 388.46 333.73 336.7"/>
    <path class="cls-1" d="m1346.61,391.92c-61.64,0-109.94-45.92-109.94-106.08s48.63-106.1,110.7-106.1,109.93,45.92,109.93,106.1-48.62,106.08-110.69,106.08m0-163.88c-31.48,0-54.33,23.85-54.33,57.79s24.2,57.79,55.09,57.79,54.33-24.51,54.33-57.79-24.2-57.79-55.09-57.79"/>
    <path class="cls-1" d="m912.64,391.92c-61.64,0-109.94-45.92-109.94-106.08s48.63-106.1,110.7-106.1,109.93,45.92,109.93,106.1-48.62,106.08-110.69,106.08m0-163.88c-31.48,0-54.33,23.85-54.33,57.79s24.2,57.79,55.09,57.79,54.33-24.51,54.33-57.79-24.2-57.79-55.09-57.79"/>
    <path class="cls-1" d="m1465,364.09h-9.12v-5.18h23.89v5.18h-9.12v24.37h-5.66v-24.37Zm21.11-5.18h6.05l8.93,14.01,8.92-14.01h5.86v29.55h-5.47v-21.01l-9.12,14.2h-.58l-9.11-14.2v21.01h-5.47v-29.55Z"/>
  </g>
</svg>