<?xml version="1.0" encoding="UTF-8"?>
<svg id="Layer_1" data-name="Layer 1" xmlns="http://www.w3.org/2000/svg" viewBox="0 0 194.01 38.02">
  <defs>
    <style>
      .cls-1 {
        fill: #e6000e;
        stroke-width: 0px;
      }
    </style>
  </defs>
  <polygon class="cls-1" points="51.36 31.75 51.36 6.19 57.9 6.19 64.36 16.01 70.86 6.19 77.36 6.19 77.36 31.75 70.82 31.75 70.82 16.16 66.25 23.02 62.64 23.02 57.93 16.16 57.93 31.75 51.36 31.75"/>
  <path class="cls-1" d="m90.57,21.09h5.33l-2.66-6.83-2.67,6.83Zm-11.18,10.67l10.73-25.66h6.32l10.74,25.71h-7.05l-2.13-5.45h-9.5l-2.16,5.41h-6.96Z"/>
  <path class="cls-1" d="m110.9,28.54c-2.56-2.52-4-5.97-4-9.57s1.44-7.04,4-9.57c2.77-2.52,6.41-3.86,10.15-3.72,2.6,0,5.16.62,7.45,1.83v6.17c-2.11-1.24-4.5-1.92-6.95-1.98-2.09-.09-4.13.65-5.7,2.04-1.47,1.36-2.27,3.29-2.19,5.29-.11,1.95.6,3.85,1.96,5.25,1.36,1.4,3.25,2.16,5.19,2.09,1.45.09,2.88-.34,4.05-1.2v-8.37h6.61v11.36c-1.24,1.28-2.75,2.26-4.42,2.89-1.99.79-4.11,1.18-6.25,1.17-3.66.11-7.22-1.21-9.92-3.68Z"/>
  <polygon class="cls-1" points="135.34 31.75 135.34 6.19 140.96 6.19 152.14 20.25 152.14 6.19 158.54 6.19 158.54 31.75 153.1 31.75 141.78 17.62 141.78 31.75 135.34 31.75"/>
  <rect class="cls-1" x="163.2" y="6.19" width="6.57" height="25.56"/>
  <polygon class="cls-1" points="179.74 31.75 179.74 11.97 172.07 11.97 172.07 6.19 194.01 6.19 194.01 11.96 186.32 11.96 186.32 31.75 179.76 31.75 179.74 31.75"/>
  <path class="cls-1" d="m0,11.5c-.01-3.04,1.18-5.96,3.3-8.13C5.38,1.22,8.25,0,11.24,0h26v5.84H11.26c-1.48,0-2.89.61-3.91,1.67-1.04,1.06-1.62,2.49-1.63,3.97v9.82c-.22,2.56-2.14,4.66-4.67,5.1l-.99.16L0,11.5Z"/>
  <path class="cls-1" d="m0,38v-5.85h26c1.48,0,2.89-.6,3.91-1.67,1.04-1.06,1.62-2.48,1.63-3.97v-9.32c0-2.76,1.98-5.12,4.7-5.59l.99-.16v15.07c.01,3.04-1.18,5.96-3.31,8.13-2.08,2.15-4.95,3.37-7.94,3.38L0,38Z"/>
  <polygon class="cls-1" points="22.02 26.59 22.02 19.02 18.63 23.16 15.24 19.02 15.24 26.59 10.76 26.59 10.76 11.71 15 11.71 18.63 16.49 22.26 11.71 26.5 11.71 26.5 26.59 22.02 26.59"/>
</svg>