<?xml version="1.0" encoding="UTF-8"?>
<svg id="Layer_1" data-name="Layer 1" xmlns="http://www.w3.org/2000/svg" viewBox="0 0 273.75 105.66">
  <defs>
    <style>
      .cls-1 {
        fill: #009fe3;
        fill-rule: evenodd;
        stroke-width: 0px;
      }
    </style>
  </defs>
  <path class="cls-1" d="m119.57,89.3l-8.51-52.06h-11.07l1.02,8.01c-.35,13.89-4.72,26.4-12.16,35.71l-6.07-43.72h-10.99c-3.65,38.32-16.32,47.87-34.38,52.36,21.17.92,32.21-10.29,38.02-24.65l3.83,25.02c-5.85,4.05-12.7,6.66-20.34,7.4-25.93,2.54-51.58-12.71-58.92-37.39,2.43,25.6,24.66,45.68,51.72,45.68s47.92-18.85,51.45-43.32l3.42,26.96h12.97Zm148.51-53.99h-.98v2.1h1.01c.57,0,.98-.08,1.23-.24.25-.16.38-.41.38-.77,0-.39-.13-.67-.39-.84-.26-.17-.67-.26-1.25-.26h0Zm.21-.77c.89,0,1.55.14,1.99.43.44.3.67.73.67,1.31,0,.45-.12.82-.38,1.12-.25.3-.61.5-1.07.59l1.42,2.9h-1.35l-1.29-2.71h-1.18v2.71h-1.2v-6.34h2.39Zm4.74,3.33c0-.68-.12-1.31-.36-1.9-.23-.59-.58-1.11-1.02-1.56-.47-.47-1-.83-1.59-1.07-.59-.25-1.22-.37-1.89-.37s-1.28.12-1.86.36c-.59.23-1.1.58-1.53,1.02-.48.48-.84,1.02-1.1,1.62-.26.6-.38,1.22-.38,1.86s.12,1.24.36,1.82c.25.59.6,1.11,1.06,1.58.46.46.98.82,1.57,1.07.59.25,1.2.38,1.83.38.66,0,1.29-.12,1.88-.36.59-.24,1.14-.59,1.62-1.06.46-.44.81-.96,1.05-1.54.25-.58.37-1.19.37-1.84h0Zm-4.89-5.65c.76,0,1.49.15,2.17.43.68.29,1.29.7,1.83,1.24.52.52.92,1.13,1.2,1.81.28.68.42,1.39.42,2.12,0,.77-.14,1.49-.42,2.16-.28.67-.68,1.26-1.21,1.78-.55.54-1.17.95-1.86,1.23-.68.29-1.39.43-2.12.43s-1.46-.14-2.13-.43c-.68-.28-1.28-.7-1.82-1.25-.53-.54-.94-1.14-1.21-1.81-.28-.67-.41-1.37-.41-2.11s.14-1.45.43-2.14c.3-.69.71-1.31,1.26-1.86.51-.52,1.1-.92,1.76-1.18.66-.27,1.37-.41,2.13-.41h0Zm-5.03,30.69c-.81-8.67-7.56-12.1-15.8-11.82-6.33.23-13.34,3.52-15.79,11.61l4.32,1.28c3.68-9.3,18.78-8.86,19.1.73v1.5c-1.81-.99-4.48-1.49-8.38-1.38-9.52,0-15.16,5.65-15.55,12.64-.38,6.97,4.5,12.64,14.14,12.64,4.57,0,7.71-1.27,9.8-3.34v2.74h8.17v-26.59h0Zm-14.6,7.93c2.5,0,4.78.35,6.43,1.48v9.4c-1.54,1.07-3.8,1.83-7.03,2-5.08,0-8.59-2.89-8.59-6.44s4.12-6.44,9.19-6.44h0Zm-42.48-19.68c10.62,0,19.23,7.95,19.23,19.64,0,.75-.04,1.48-.12,2.21h-28.25c1.74,6.12,6.28,8.93,13.86,8.69,5.19-.2,7.98-2.36,9.43-4.6h4.34c-1.54,7.25-6.63,12.77-16.94,12.88-12.91,0-20.79-8.32-20.79-19.17s8.61-19.64,19.23-19.64h0Zm.54,7.41c5.28,0,7.87,3.21,9.19,7.7h-18.39c1.33-4.49,3.92-7.7,9.19-7.7h0ZM9.12,69.2s-11.47-16.44-1.65-38.63C13.74,16.43,24.91,5.95,40.17,1.81c25.32-6.85,52.53,6.21,61.55,31.19,0,0-14.37-24.43-47.04-22.61C24.34,12.08,3.26,39.69,9.12,69.2h0Zm153.9-10.49c3.15,0,5.98,1.41,8,3.66v16c-2.01,2.25-4.85,3.64-8,3.64-6.08,0-11.01-5.22-11.01-11.65s4.93-11.65,11.01-11.65h0Zm8-21.72h9.66v52.31h-9.66v-3.54c-3.31,2.9-7.48,4.65-11.91,4.65-9.96,0-17.51-8.84-16.87-19.73.64-10.9,8.13-19.74,19.19-19.74,3.6,0,6.89,1.16,9.59,3.15v-17.1h0Zm-45.44,13.95h9.5v38.36h-9.5v-38.36h0Zm0-13.95h9.5v9.51h-9.5v-9.51h0Z"/>
</svg>