<?xml version="1.0" encoding="UTF-8"?>
<svg id="Layer_1" data-name="Layer 1" xmlns="http://www.w3.org/2000/svg" viewBox="0 0 192.76 192.76">
  <defs>
    <style>
      .cls-1 {
        fill: #f9a13a;
      }

      .cls-1, .cls-2 {
        fill-rule: evenodd;
        stroke-width: 0px;
      }

      .cls-2 {
        fill: #fff;
      }
    </style>
  </defs>
  <polygon class="cls-1" points="0 0 192.76 0 192.76 192.76 0 192.76 0 0 0 0"/>
  <path class="cls-2" d="m75.11,170.06c-2.61,1.72-5.44,2.55-8.48,2.55-4.79,0-7.61-3.18-7.61-7.44,0-5.73,5.27-8.76,16.15-9.98v-1.43c0-1.86-1.41-2.94-4.02-2.94s-4.73,1.03-6.25,2.94l-4.57-2.59c2.39-3.33,6.03-4.99,10.93-4.99,6.69,0,10.44,2.89,10.44,7.59,0,0,0,18.51,0,18.56h-5.99l-.6-2.25h0Zm-9.46-5.38c0,1.71,1.09,3.32,3.05,3.32,2.12,0,4.19-.88,6.25-2.69v-6.06c-6.31.77-9.3,2.4-9.3,5.43h0Z"/>
  <path class="cls-2" d="m87.02,147.3l5.59-.77.62,3.03c3.15-2.3,5.66-3.52,8.8-3.52,5.27,0,7.99,2.79,7.99,8.32v17.82h-6.74v-16.65c0-3.13-.82-4.55-3.26-4.55-2.01,0-4.02.93-6.31,2.84v18.36h-6.69v-24.89h0Z"/>
  <path class="cls-2" d="m154.7,172.68c-7.56,0-12.07-4.85-12.07-13.27s4.57-13.36,11.97-13.36,11.79,4.7,11.79,13.02c0,.45-.06.88-.06,1.32h-17.07c.06,4.85,2.07,7.3,6.04,7.3,2.56,0,4.24-1.03,5.81-3.28l4.94,2.74c-2.17,3.62-6.09,5.53-11.36,5.53h0Zm5.06-16.65c0-3.43-1.96-5.44-5.16-5.44s-4.95,1.96-5.22,5.44h10.38Z"/>
  <path class="cls-2" d="m25.5,172.96c-6.67,0-12.68-4.24-12.68-13.51s6.01-13.5,12.68-13.5,12.69,4.24,12.69,13.5-6.01,13.51-12.69,13.51h0Zm0-21.33c-5.04,0-5.97,4.54-5.97,7.82s.93,7.82,5.97,7.82,5.97-4.54,5.97-7.82-.93-7.82-5.97-7.82h0Z"/>
  <path class="cls-2" d="m42.82,146.62h6.41v3.01c1.22-1.62,4.24-3.53,7.07-3.53.27,0,.6,0,.87.04v6.32h-.32c-2.94,0-6.14.45-7.17,2.73v18.03h-6.85v-26.6h0Z"/>
  <path class="cls-2" d="m126.53,166.71c5.12-.04,5.55-5.24,5.55-8.64,0-4-1.96-7.25-5.6-7.25-2.43,0-5.13,1.77-5.13,7.53,0,3.16.22,8.39,5.17,8.36h0Zm12.04-20.19v24.24c0,4.28-.32,11.31-12.54,11.39-5.04.03-9.71-1.98-10.65-6.37l6.66-1.07c.28,1.25,1.05,2.5,4.83,2.5,3.49,0,5.17-1.67,5.17-5.67v-2.97l-.09-.1c-1.07,1.91-2.71,3.72-6.62,3.72-5.97,0-10.68-4.14-10.68-12.79s4.85-13.35,10.31-13.36c5.11-.01,7.02,2.32,7.45,3.55l-.08-.02.56-3.06h5.69Z"/>
  <path class="cls-2" d="m170.13,136.49h-3.21v8.87h-1.69v-8.87h-3.21v-1.37h8.11v1.37h0Zm13.36,8.87h-1.7v-8.55h-.04l-3.36,8.55h-1.07l-3.36-8.55h-.05v8.55h-1.69v-10.23h2.61l3.06,7.77,3.01-7.77h2.59v10.23h0Z"/>
</svg>