<?xml version="1.0" encoding="UTF-8"?>
<svg id="Layer_1" data-name="Layer 1" xmlns="http://www.w3.org/2000/svg" viewBox="0 0 160.24 23.46">
  <defs>
    <style>
      .cls-1 {
        fill: #231f20;
        fill-rule: evenodd;
        stroke-width: 0px;
      }
    </style>
  </defs>
  <path class="cls-1" d="m87.87,10.89s-1.56-.96-2.52-1.34c0,0-2.98-1.38-3.58-2.04,0,0-1.16-1.1-.48-2.37,0,0,.28-.83,1.51-.83,0,0,1.6.09,1.6,1.4v1.86h5.73v-2.73s.43-4.47-6.76-4.67c0,0-5.66-.37-7.28,2.68,0,0-.64.68-.64,3.05v1.71s-.07,1.97.94,3.25c0,0,.57.83,1.97,1.75,0,0,2.85,1.54,4.56,2.41,0,0,1.73.99,1.5,2.55,0,0-.14,1.61-1.81,1.54,0,0-1.53-.07-1.53-1.65v-1.85h-6.11v2.69s-.17,5.15,7.68,5.15c0,0,7.5.15,7.85-5.29v-2.19s.26-3.33-2.65-5.09h0Z"/>
  <polygon class="cls-1" points="58.51 .81 56.59 12.84 56.14 12.84 54.31 .92 44.73 .92 44.25 22.71 49.92 22.71 49.99 6.29 50.44 6.29 53.44 22.7 59.41 22.7 62.38 6.3 62.77 6.3 62.91 22.71 68.61 22.71 68 .81 58.51 .81 58.51 .81"/>
  <polygon class="cls-1" points="24.76 .9 20.98 22.68 27.09 22.68 29.32 5.79 29.82 5.79 32.06 22.68 38.16 22.68 34.39 .9 24.76 .9 24.76 .9"/>
  <path class="cls-1" d="m152.86,10.59v3.21h1.57v3.45c0,1.69-1.44,1.72-1.44,1.72-1.75,0-1.69-1.6-1.69-1.6V5.44c0-1.23,1.55-1.29,1.55-1.29,1.49,0,1.5,1.47,1.5,1.47v1.81h5.75c.19-3.54-.52-4.4-.52-4.4C158.16-.17,152.76,0,152.76,0c-8.29,0-7.37,6.36-7.37,6.36v11.54c.18,5.96,8.34,5.36,8.48,5.35,3.63-.4,4.73-1.56,4.73-1.56,1.01-.75,1.27-1.79,1.27-1.79.29-.61.36-2.53.36-2.53v-6.78h-7.38Z"/>
  <polygon class="cls-1" points="133.8 14.14 133.56 14.14 127.72 .82 120.74 .82 120.74 22.71 126.42 22.71 126.08 9.39 126.34 9.39 132.38 22.71 139.15 22.71 139.15 .81 133.4 .81 133.8 14.14 133.8 14.14"/>
  <path class="cls-1" d="m106.88,17.25s.08,1.8-1.58,1.8c0,0-1.75.09-1.75-1.75l-.02-16.47h-6.23v16.34s-.64,6.18,8.09,6.18c0,0,7.58.09,7.58-5.9V.83h-6.09v16.42h0Z"/>
  <path class="cls-1" d="m12.88,10.89s-1.56-.96-2.52-1.34c0,0-2.98-1.38-3.57-2.04,0,0-1.16-1.1-.48-2.37,0,0,.28-.83,1.51-.83,0,0,1.6.09,1.6,1.4v1.86h5.74v-2.73S15.58.37,8.38.17c0,0-.54-.03-1.34,0C7.05.17,2.69.41,1.13,2.8c0,.02-.02.03-.03.05,0,0-.64.68-.64,3.05v1.71s-.07,1.97.94,3.25c0,0,.57.83,1.97,1.75,0,0,2.85,1.53,4.56,2.41,0,0,1.73.99,1.5,2.56,0,0-.14,1.61-1.81,1.54,0,0-1.53-.07-1.53-1.65v-1.85H0v2.69s-.17,5.15,7.68,5.15c0,0,7.5.15,7.85-5.29v-2.19s.26-3.33-2.65-5.09h0Z"/>
</svg>