<?xml version="1.0" encoding="UTF-8"?>
<svg id="Layer_1" data-name="Layer 1" xmlns="http://www.w3.org/2000/svg" viewBox="0 0 187.09 32.63">
  <defs>
    <style>
      .cls-1 {
        fill: #231f20;
        fill-rule: evenodd;
        stroke-width: 0px;
      }
    </style>
  </defs>
  <path class="cls-1" d="m184.24,26.35c-1.58,0-2.86,1.28-2.86,2.84s1.28,2.86,2.86,2.86,2.84-1.28,2.84-2.86-1.27-2.84-2.84-2.84h0Zm0,5.36c-1.39,0-2.51-1.12-2.51-2.52s1.12-2.5,2.51-2.5,2.5,1.12,2.5,2.5-1.12,2.52-2.5,2.52h0Z"/>
  <path class="cls-1" d="m185.71,28.45c0-.27-.12-.55-.36-.69-.24-.14-.51-.16-.78-.16h-1.39v3.19h.39v-1.47h.72l.91,1.47h.46l-.96-1.47h0c.57-.01,1.01-.25,1.01-.87h0Zm-1.54.57h-.6v-1.13h.91c.4,0,.83.06.83.55,0,.65-.69.57-1.14.57h0Z"/>
  <path class="cls-1" d="m167.53,13.04l5.83-6.22h0c.34-.46.51-.78.51-1.05,0-.46-.39-.64-1.63-.64h-1.47V1.19h15.92v3.93h-2.09c-2.42,0-2.87.37-6.24,4.61h0l-9.22,9.96v6.08h0c0,1.55.79,2.1,3.03,2.1h3.48v3.79h-22.3v-3.79h3.48c2.25,0,3.03-.55,3.03-2.1h0v-6.08l-10.86-12.02h0c-1.8-2.1-1.55-2.56-6.55-2.56h0V1.19h20.17v3.93h-1.44c-1.46,0-2.08.27-2.08.82,0,.46.45.82.73,1.19h0l5.5,5.99h0c.65.68,1.45.77,2.19-.08h0Z"/>
  <path class="cls-1" d="m32.21,1.19h4.86v10.97h-4.49c-.4-2.19-1.77-3.05-3.02-4.2-2.26-2.07-7.14-3.8-11.26-3.8-5.31,0-9.78,1.65-9.78,4.07,0,6.72,30.34,1.37,30.34,14.07,0,6.63-6.5,10.33-18.17,10.33-4.04,0-10.16-1.25-13.76-3.17-1.13-.65-1.61.62-1.82,2.21H.12v-11.33h4.51c.99,2.88,2.37,3.47,3.63,4.62,2.19,2.01,7.4,3.47,12.17,3.43,7.2-.07,9.68-1.64,9.68-3.93s-2.45-2.83-10.34-4.07h0l-6.7-1.1h0C5.5,18.14,0,16.45,0,10.42S6.96.23,17.97.23c4.64,0,8.52.62,12.25,2.73,1.03.67,2,.75,1.99-1.77h0Z"/>
  <path class="cls-1" d="m127.15,19.55l.1-12.19h0c0-1.6-.83-2.15-3.21-2.15h-2.79V1.42h17.77v3.79h-2.32c-2.38,0-3.21.55-3.21,2.15h0v24.54l-6.96-.05-22.52-21.33v15.49h0c0,1.55.83,2.15,3.21,2.15h3.09v3.75h-18.45v-3.75h3.06c2.38,0,3.21-.59,3.21-2.15h0V7.36h0c0-1.6-.83-2.15-3.21-2.15h-3.06V1.42h15.96l19.34,18.13h0Z"/>
  <path class="cls-1" d="m67.63,0c-14.16,0-23.03,6.26-23.03,16.31s8.74,16.08,22.6,16.08c14.71,0,23.27-6.12,23.27-16.59,0-9.41-9.24-15.81-22.84-15.81h0Zm-.32,28.42c-7.84,0-12.35-4.52-12.35-12.34s4.7-12.15,12.74-12.15,12.21,4.62,12.21,12.47-4.57,12.02-12.61,12.02h0Z"/>
</svg>