<?xml version="1.0" encoding="UTF-8"?>
<svg id="katman_1" data-name="katman 1" xmlns="http://www.w3.org/2000/svg" viewBox="0 0 430 525.32">
  <defs>
    <style>
      .cls-1 {
        fill: #fff;
      }

      .cls-1, .cls-2, .cls-3 {
        stroke-width: 0px;
      }

      .cls-2 {
        fill: #6f6f6e;
      }

      .cls-3 {
        fill: #ea6101;
      }
    </style>
  </defs>
  <rect class="cls-3" x="20.25" width="389.51" height="403.25" rx="142.01" ry="142.01"/>
  <g>
    <path class="cls-1" d="m92.6,122.8v157.69h38.08v-123.9c25.46.14,50.94-.25,76.4.11,14.61-.68,27.01,13.18,26.79,27.96.44,31.93.03,63.89.16,95.83h38.08c0-36.58,0-73.16.03-109.74,1.85-25.88-21.65-48.57-46.1-47.84-44.47-.31-88.97,0-133.44-.11Z"/>
    <path class="cls-1" d="m299.32,122.8v157.69h38.08V122.8h-38.08Z"/>
    <path class="cls-1" d="m163.32,184.75v95.74h38.08v-95.74h-38.08Z"/>
  </g>
  <g>
    <path class="cls-2" d="m27.94,488.64L1,453.34h18.05l18.05,24.33,17.77-24.33h18.05l-26.79,34.12,27.8,36.64h-18.2l-18.77-25.36-18.77,25.36H0l27.94-35.45Z"/>
    <path class="cls-2" d="m89.86,453.67h14.9v70.76h-14.9v-70.76Z"/>
    <path class="cls-2" d="m415.1,453.67h14.9v70.76h-14.9v-70.76Z"/>
    <path class="cls-2" d="m301.68,459.46c4.25-4.45,10.83-6.67,19.74-6.67h1.84c9.32,0,16.14,3.02,20.47,9.05,4.17-6.03,10.95-9.05,20.35-9.05h1.84c8.99,0,15.61,2.22,19.86,6.67,4.25,4.45,6.38,11.52,6.38,21.21v43.76h-12.75v-40.5c0-6.33-1.13-10.78-3.37-13.35-2.25-2.57-5.95-3.86-11.1-3.86s-9.01,1.39-11.34,4.15c-2.33,2.77-3.49,7.37-3.49,13.8v39.75h-12.75v-39.75c0-6.53-1.17-11.15-3.49-13.87-2.33-2.72-6.15-4.08-11.46-4.08s-8.85,1.28-11.1,3.86-3.37,7.02-3.37,13.35v40.5h-12.75v-43.76c0-9.69,2.17-16.76,6.5-21.21Z"/>
    <path class="cls-2" d="m209.49,490.46v-2.82c0-12.06,2.58-20.89,7.74-26.48,5.16-5.59,13.31-8.38,24.45-8.38h2.44c11.14,0,19.29,2.79,24.45,8.38,5.16,5.59,7.74,14.42,7.74,26.48v2.82c0,12.07-2.58,20.89-7.74,26.48s-13.31,8.38-24.45,8.38h-2.44c-11.14,0-19.29-2.79-24.45-8.38-5.16-5.59-7.74-14.41-7.74-26.48Zm18.34,16.17c2.72,3.17,7.74,4.75,15.08,4.75s12.36-1.58,15.08-4.75c2.72-3.16,4.08-9.05,4.08-17.65s-1.36-14.48-4.08-17.65c-2.72-3.07-7.74-4.6-15.08-4.6s-12.36,1.56-15.08,4.67c-2.72,3.12-4.08,8.97-4.08,17.58s1.36,14.49,4.08,17.65Z"/>
    <path class="cls-2" d="m192.27,504.54c0,13.58-9.45,20.78-33.44,20.78s-33.59-6.27-33.59-20.67c0-16.26,12.6-21.6,32.24-21.6h18v-6.73c0-9.41-7.2-11.03-18.75-11.03-9.45,0-18.3.81-23.24,2.21v-11.73c5.85-1.51,13.65-2.09,22.04-2.09,22.49,0,36.74,4.99,36.74,22.18v28.68Zm-16.79-10.45h-18.15c-10.65,0-15.3,2.9-15.3,9.99,0,8.83,7.65,9.87,16.5,9.87,9.75,0,16.95-1.39,16.95-10.22v-9.64Z"/>
  </g>
</svg>